<svg width="23" height="23" viewBox="0 0 23 23" fill="none" xmlns="http://www.w3.org/2000/svg">
<path d="M13.8287 18.0358C13.6466 18.0358 13.4645 17.9687 13.3207 17.825C13.0428 17.5471 13.0428 17.0871 13.3207 16.8092L18.6299 11.5L13.3207 6.19082C13.0428 5.91291 13.0428 5.45291 13.3207 5.17499C13.5987 4.89707 14.0587 4.89707 14.3366 5.17499L20.1537 10.9921C20.4316 11.27 20.4316 11.73 20.1537 12.0079L14.3366 17.825C14.1928 17.9687 14.0107 18.0358 13.8287 18.0358Z" fill="black"/>
<path d="M19.4829 12.2188H3.35413C2.96121 12.2188 2.63538 11.8929 2.63538 11.5C2.63538 11.1071 2.96121 10.7812 3.35413 10.7812H19.4829C19.8758 10.7812 20.2016 11.1071 20.2016 11.5C20.2016 11.8929 19.8758 12.2188 19.4829 12.2188Z" fill="black"/>
</svg>
