<svg width="670" height="400" viewBox="0 0 670 400" fill="none" xmlns="http://www.w3.org/2000/svg">
<rect width="670" height="400" fill="#CFCFCF"/>
<path d="M341.25 222.396H328.75C317.438 222.396 312.604 217.562 312.604 206.25V193.75C312.604 182.437 317.438 177.604 328.75 177.604H341.25C352.563 177.604 357.396 182.437 357.396 193.75V206.25C357.396 217.562 352.563 222.396 341.25 222.396ZM328.75 180.729C319.146 180.729 315.729 184.146 315.729 193.75V206.25C315.729 215.854 319.146 219.271 328.75 219.271H341.25C350.854 219.271 354.271 215.854 354.271 206.25V193.75C354.271 184.146 350.854 180.729 341.25 180.729H328.75Z" fill="#9A9A9A"/>
<path d="M328.75 197.396C325.583 197.396 323.021 194.833 323.021 191.667C323.021 188.5 325.583 185.938 328.75 185.938C331.917 185.938 334.479 188.5 334.479 191.667C334.479 194.833 331.917 197.396 328.75 197.396ZM328.75 189.063C327.312 189.063 326.146 190.229 326.146 191.667C326.146 193.104 327.312 194.271 328.75 194.271C330.187 194.271 331.354 193.104 331.354 191.667C331.354 190.229 330.187 189.063 328.75 189.063Z" fill="#9A9A9A"/>
<path d="M315.562 216.042C315.062 216.042 314.562 215.792 314.271 215.354C313.792 214.646 313.979 213.667 314.708 213.188L324.979 206.292C327.229 204.771 330.333 204.958 332.375 206.688L333.062 207.292C334.104 208.188 335.875 208.188 336.896 207.292L345.562 199.854C347.771 197.958 351.25 197.958 353.479 199.854L356.875 202.771C357.521 203.333 357.604 204.313 357.042 204.979C356.479 205.625 355.5 205.708 354.833 205.146L351.437 202.229C350.396 201.333 348.625 201.333 347.583 202.229L338.917 209.667C336.708 211.563 333.229 211.563 331 209.667L330.312 209.063C329.354 208.25 327.771 208.167 326.708 208.896L316.437 215.792C316.167 215.958 315.854 216.042 315.562 216.042Z" fill="#9A9A9A"/>
</svg>
